<?xml version="1.0" encoding="utf-8"?>
<!-- Generator: Adobe Illustrator 19.2.1, SVG Export Plug-In . SVG Version: 6.00 Build 0)  -->
<svg version="1.1" id="Layer_1" xmlns="http://www.w3.org/2000/svg" xmlns:xlink="http://www.w3.org/1999/xlink" x="0px" y="0px"
	 viewBox="0 0 216 216" style="enable-background:new 0 0 216 216;" xml:space="preserve">
<style type="text/css">
	.st0{fill:#0D97D4;}
	.st1{clip-path:url(#SVGID_2_);fill:#2B7DC1;}
	.st2{fill:#FFFFFF;}
</style>
<circle class="st0" cx="108.1" cy="108" r="100.8"/>
<g>
	<g>
		<g>
			<defs>
				<circle id="SVGID_1_" cx="108" cy="108" r="100.8"/>
			</defs>
			<clipPath id="SVGID_2_">
				<use xlink:href="#SVGID_1_"  style="overflow:visible;"/>
			</clipPath>
			<path class="st1" d="M38.5,128.5l24.9,31.4l141.9,53.3c0,0,20.5-48.7,21.2-50.1c0.7-1.3,2.8-84.6,2.8-84.6l-78-29.2l-24.8,14.1
				L88,49.1L38.5,128.5z"/>
		</g>
	</g>
</g>
<g>
	<path class="st2" d="M178.1,108L178.1,108l-20.9-50.5l0,0c-2.5-7-9.2-12-17-12c-9.8,0-17.8,7.8-18,17.5l0,0l-1.7,13.2
		c-3.9-0.8-7.9-1.2-11.9-1.2c-3.9,0-7.8,0.4-11.5,1.2l-1.7-13.1l0,0c-0.3-9.7-8.2-17.5-18-17.5c-7.8,0-14.5,5-17,12l0,0L38.9,108
		l0,0c-2.8,5.7-4.4,11.9-4.4,18c0,18.7,15.2,33.9,33.9,33.9c14.8,0,27.4-9.5,32-22.7c2.3,1.6,5.1,2.5,8.1,2.5s5.8-0.9,8.1-2.5
		c4.6,13.2,17.2,22.7,32,22.7c18.7,0,33.9-15.2,33.9-33.9C182.5,119.9,180.9,113.7,178.1,108z M68.4,147.6
		c-11.9,0-21.6-9.7-21.6-21.6s9.7-21.6,21.6-21.6S90,114.1,90,126S80.3,147.6,68.4,147.6z M108.5,130.7c-2.9,0-5.2-2.3-5.2-5.2
		s2.3-5.2,5.2-5.2s5.2,2.3,5.2,5.2S111.4,130.7,108.5,130.7z M148.6,147.6c-11.9,0-21.6-9.7-21.6-21.6s9.7-21.6,21.6-21.6
		s21.6,9.7,21.6,21.6S160.5,147.6,148.6,147.6z"/>
</g>
</svg>
